<svg xmlns="http://www.w3.org/2000/svg" viewBox="0 0 200 289.89"><defs><style>.cls-1{fill:#fff;}</style></defs><g id="Capa_2" data-name="Capa 2"><g id="Capa_3" data-name="Capa 3"><rect class="cls-1" width="200" height="14.76"/><rect class="cls-1" x="25.09" y="26.57" width="149.82" height="15.5"/><path class="cls-1" d="M140.22,85.06V197.88c0,1,.22-115.11.22-115.11A12.43,12.43,0,0,0,140.22,85.06Z"/><path class="cls-1" d="M59.78,85.06a12.43,12.43,0,0,0-.22-2.29v118a19.12,19.12,0,0,0,.22-2.85Z"/><path class="cls-1" d="M158.58,53.87H41.42a.09.09,0,0,0-.09.09V68a.09.09,0,0,0,.07.09c7.9,1.29,16.68,6.94,18.16,14.66V84.3c.14.74,0,205.59,0,205.59l14.94-13.3V78.19a8.71,8.71,0,0,1,8.71-8.71h.37a8.71,8.71,0,0,1,8.71,8.71V260.76l15.31-13.62V78.45a8.93,8.93,0,0,1,8.93-8.93h.15a8.93,8.93,0,0,1,8.93,8.93V231.11l14.83-13.2V82.77c1.48-7.72,10.26-13.37,18.16-14.66a.09.09,0,0,0,.07-.09V54A.09.09,0,0,0,158.58,53.87Z"/></g></g></svg>